<?xml version="1.0" standalone="no"?><!DOCTYPE svg PUBLIC "-//W3C//DTD SVG 1.1//EN" "http://www.w3.org/Graphics/SVG/1.1/DTD/svg11.dtd"><svg t="1672566480191" class="icon" viewBox="0 0 1024 1024" version="1.1" xmlns="http://www.w3.org/2000/svg" p-id="5199" xmlns:xlink="http://www.w3.org/1999/xlink" width="200" height="200"><path d="M688.5 539.1l208.1-244.8c41.8-49.1 35.8-122.9-13.3-164.6l-44.5-37.9C789.6 50 715.8 56 674.1 105.2L466 349.9c-6.8 8-12.3 16.6-16.5 25.6l-26.1-23.9c-17.8-16.3-45.6-15.1-61.9 2.8-16.3 17.8-15.1 45.6 2.8 61.9l34.5 31.6c-7.8 4-16.3 10.4-16.3 10.4L189.7 678.6s-18.2 22.8-27.4 47.9c-10.3 28.3-10.3 57.7 0.9 88.1-35.9 4.6-63.6 35.2-63.6 72.4 0 40.3 32.7 73 73 73 38.3 0 69.6-29.4 72.7-66.9 31.6 10.5 58.6 7.9 85.5-4.9 21.1-10 37.6-27.8 37.6-27.8l217.2-241.5 37.1 34c17.9 16.3 45.6 15.1 61.9-2.7 16.3-17.8 15.1-45.6-2.8-61.9l-25.1-23c11.8-6.7 22.6-15.4 31.8-26.2z m-140.6 55c-45.4 52.5-211.6 240.1-211.6 240.1s-12.8 14.3-27 20.5c-19.8 8.6-45.3 6-62.7-1.8-5.1-2.3-10.7-5.9-16.2-10.3-4.4-5.7-9.6-10.8-15.5-15-5.1-5.9-9.5-12.2-12.3-18.3-10.5-22.3-11-48.1-7.4-62.4 4.4-17.1 14.3-33.9 14.3-33.9l202.3-232.7s5.7-6.2 7.8-13.2l132.6 121.4c-1.2 1.8-2.6 3.8-4.3 5.6z" fill="#040000" p-id="5200"></path></svg>