<?xml version="1.0" standalone="no"?><!DOCTYPE svg PUBLIC "-//W3C//DTD SVG 1.1//EN" "http://www.w3.org/Graphics/SVG/1.1/DTD/svg11.dtd"><svg t="1672926864734" class="icon" viewBox="0 0 1024 1024" version="1.1" xmlns="http://www.w3.org/2000/svg" p-id="7946" xmlns:xlink="http://www.w3.org/1999/xlink" width="200" height="200"><path d="M479.8 672H223c-17.7 0-32 14.3-32 32s14.3 32 32 32h256.9c17.7 0 32-14.3 32-32-0.1-17.7-14.4-32-32.1-32zM606.8 480H223c-17.7 0-32 14.3-32 32s14.3 32 32 32h383.9c17.7 0 32-14.3 32-32-0.1-17.7-14.4-32-32.1-32zM223 352h191.9c17.7 0 32-14.3 32-32s-14.3-32-32-32H223c-17.7 0-32 14.3-32 32s14.3 32 32 32zM832 671H686.8l23.1-23.1c12.5-12.5 12.5-32.8 0-45.3-6.2-6.2-14.4-9.4-22.6-9.4s-16.4 3.1-22.6 9.4L587 680.3c-0.4 0.4-0.8 0.8-1.1 1.2-5.5 6.1-8.2 13.8-8.2 21.4 0 7.7 2.7 15.4 8.2 21.4 0.4 0.4 0.7 0.8 1.1 1.2l77.7 77.7c12.5 12.5 32.8 12.5 45.3 0s12.5-32.8 0-45.3L686.8 735H832c35.6 0 64.5 29.3 64 65-0.5 35.1-29.8 63-65 63h-30c-17.7 0-32 14.3-32 32s14.3 32 32 32h29.6c70.6 0 129-56.6 129.4-127.3 0.4-70.9-57.2-128.7-128-128.7z" p-id="7947"></path><path d="M822.4 247.6L649.2 73.4c-6-6-14.2-9.4-22.7-9.4H128c-35.3 0-64 28.7-64 64v768c0 35.3 28.6 64 64 64h543.9c17.7 0 32-14.3 32-32s-14.3-32-32-32H160c-17.7 0-32-14.3-32-32V160c0-17.7 14.3-32 32-32h383.9v160c0 35.3 28.6 64 64 64h159.9v192c0 17.7 14.3 32 32 32s32-14.3 32-32V270.2c0-8.5-3.4-16.6-9.4-22.6zM639.8 288c-17.7 0-32-14.3-32-32V128l159.9 160H639.8z" p-id="7948"></path></svg>